#!OML:ASF H:\Male1\Project 1\Capture day 1\Session 1\Male1.ASF
:FULLY-SPECIFIED
:DEGREES
330
root 4.95688 15.4858 1.94005 176.726 -28.9521 -178.442
lowerback 5.0302 1.19474 -0.150257
upperback 4.18716 1.38628 -1.20537
thorax 1.51146 0.617235 -1.20539
lowerneck -6.07847 2.82769 6.82175
upperneck 5.29857 3.34979 -2.77626
head 2.97562 1.70873 -1.96298
rclavicle -8.26944e-014 2.46493e-014
rhumerus -26.3368 25.3842 -96.6164
rradius 50.5681
rwrist -30.7169
rhand -23.0908 -0.96627
rfingers 7.12502
rthumb 3.35545 -30.9196
lclavicle -8.26944e-014 2.46493e-014
lhumerus -22.7742 -21.594 89.9039
lradius 44.6881
lwrist 19.3421
lhand -17.836 24.3283
lfingers 7.12502
lthumb 8.42857 54.1401
rfemur -1.56632 16.486 23.7092
rtibia 20.483
rfoot -29.6163 -35.1092
rtoes -13.4105
lfemur -0.649973 -20.5412 -19.0331
ltibia 20.0028
lfoot -20.0741 28.3081
ltoes -10.4916
331
root 4.9674 15.4886 1.95657 176.733 -29.2932 -178.422
lowerback 5.22072 1.1184 -0.194122
upperback 4.19806 1.27778 -1.21377
thorax 1.41368 0.560422 -1.18898
lowerneck -5.89623 2.81608 6.85939
upperneck 5.17251 3.33614 -2.68425
head 2.89572 1.70477 -1.94033
rclavicle -8.66701e-014 -1.35174e-014
rhumerus -26.1428 26.1139 -96.3315
rradius 56.2345
rwrist -31.9305
rhand -25.4682 -0.968978
rfingers 7.12502
rthumb 1.05939 -30.9461
lclavicle -8.66701e-014 -1.35174e-014
lhumerus -22.9918 -23.5805 89.941
lradius 51.5769
lwrist 21.6676
lhand -20.3396 25.815
lfingers 7.12502
lthumb 6.01197 55.7097
rfemur -1.61076 16.3371 23.7118
rtibia 20.4473
rfoot -29.8396 -35.1994
rtoes -12.9488
lfemur -0.90728 -20.3757 -18.8861
ltibia 20.0669
lfoot -19.6411 27.954
ltoes -11.2075
332
root 4.97644 15.4901 1.97534 176.807 -29.8765 -178.582
lowerback 5.47605 0.935129 -0.373688
upperback 4.20958 1.01901 -1.26188
thorax 1.27605 0.425153 -1.13151
lowerneck -5.72981 2.84627 6.81609
upperneck 5.05083 3.38149 -2.5451
head 2.82002 1.72975 -1.8844
rclavicle -3.96575e-014 2.78299e-014
rhumerus -25.7688 26.8565 -96.0005
rradius 61.9923
rwrist -32.9426
rhand -28.1269 0.704957
rfingers 7.12502
rthumb -1.50846 -29.2695
lclavicle -3.96575e-014 2.78299e-014
lhumerus -23.0457 -25.0187 89.8135
lradius 59.1314
lwrist 23.0025
lhand -22.8753 26.5792
lfingers 7.12502
lthumb 3.56355 56.5291
rfemur -1.63327 16.0717 23.5327
rtibia 20.4499
rfoot -30.2025 -35.3099
rtoes -12.3862
lfemur -1.16192 -20.3689 -18.9342
ltibia 20.1017
lfoot -19.2857 27.4864
ltoes -11.6217
333
root 4.98318 15.498 1.98792 177.107 -30.2301 -178.716
lowerback 5.41165 0.807824 -0.513243
upperback 4.15459 0.848658 -1.31986
thorax 1.25085 0.339377 -1.10508
lowerneck -5.47796 2.89219 6.74469
upperneck 4.89442 3.45414 -2.3761
head 2.71645 1.76829 -1.81315
rclavicle 6.9674e-014 -1.90833e-014
rhumerus -25.2169 27.4537 -95.5901
rradius 68.2728
rwrist -33.4514
rhand -29.8318 1.44455
rfingers 7.12502
rthumb -3.15501 -28.5119
lclavicle 6.9674e-014 -1.90833e-014
lhumerus -22.8947 -26.2265 89.5639
lradius 67.2553
lwrist 24.8775
lhand -26.6995 27.2709
lfingers 7.12502
lthumb -0.129852 57.2506
rfemur -1.93788 15.8181 23.2922
rtibia 20.4716
rfoot -30.2528 -35.3112
rtoes -12.3307
lfemur -1.56983 -20.3184 -18.9022
ltibia 20.0967
lfoot -19.1769 27.0689
ltoes -11.0756
334
root 5.00356 15.5001 2.00494 177.125 -30.3805 -178.749
lowerback 5.69004 0.760421 -0.689829
upperback 4.15373 0.768905 -1.33093
thorax 1.09167 0.293628 -1.01718
lowerneck -5.18069 2.91803 6.68872
upperneck 4.69211 3.50597 -2.2618
head 2.5903 1.79459 -1.76476
rclavicle 1.55748e-013 -2.38542e-014
rhumerus -24.3319 27.9716 -95.1084
rradius 74.5182
rwrist -33.6811
rhand -31.2713 3.95584
rfingers 7.12502
rthumb -4.54512 -25.9754
lclavicle 1.55748e-013 -2.38542e-014
lhumerus -22.2167 -27.1041 89.1418
lradius 75.2187
lwrist 26.3095
lhand -28.8105 26.2146
lfingers 7.12502
lthumb -2.1687 56.1833
rfemur -2.04226 15.7752 23.2689
rtibia 20.505
rfoot -30.3221 -35.3388
rtoes -12.0745
lfemur -1.75227 -20.0491 -18.7965
ltibia 20.1235
lfoot -18.9284 26.658
ltoes -10.9627
335
root 5.02079 15.5064 2.01887 177.322 -30.4529 -178.671
lowerback 5.63467 0.752076 -0.713159
upperback 4.12802 0.760286 -1.32592
thorax 1.09538 0.290033 -0.998033
lowerneck -4.92064 2.87223 6.62114
upperneck 4.48356 3.46488 -2.20735
head 2.46643 1.77262 -1.73815
rclavicle -8.02096e-014 -2.78299e-014
rhumerus -23.0325 28.4065 -94.5533
rradius 81.0606
rwrist -34.0146
rhand -32.5186 4.1329
rfingers 7.12502
rthumb -5.74943 -25.7691
lclavicle -8.02096e-014 -2.78299e-014
lhumerus -20.8896 -27.8203 88.6128
lradius 82.9194
lwrist 26.7935
lhand -29.6479 24.2715
lfingers 7.12502
lthumb -2.97742 54.2305
rfemur -2.38909 15.7814 23.2768
rtibia 20.4809
rfoot -30.2907 -35.3948
rtoes -11.8168
lfemur -2.22656 -19.8374 -18.5156
ltibia 20.1929
lfoot -18.496 26.4948
ltoes -12.0101
